PathFileType	4	(X/Y/Z)	C:/Users/beibeiliu/ov580/test_trc/User2\sequence.12_training_dense_left.trc
DataRate	CameraRate	NumFrames	NumMarkers	Units	OrigDataRate	OrigDataStartFrame	OrigNumFrames
120	120	21	19	mm	120	50	98
Frame#	Time	ThumbCMC			ThumbMCP			ThumbIP			ThumbTip			IndexMCP			IndexPIP			IndexTip			MiddleMCP			MiddlePIP			MiddleTip			RingMCP			RingPIP			RingTip			PinkyMCP			PinkyPIP			PinkyTip			BackHand1			BackHand2			BackHand3	
		X0	Y0	Z0	X1	Y1	Z1	X2	Y2	Z2	X3	Y3	Z3	X4	Y4	Z4	X5	Y5	Z5	X6	Y6	Z6	X7	Y7	Z7	X8	Y8	Z8	X9	Y9	Z9	X10	Y10	Z10	X11	Y11	Z11	X12	Y12	Z12	X13	Y13	Z13	X14	Y14	Z14	X15	Y15	Z15	X16	Y16	Z16	X17	Y17	Z17	X18	Y18	Z18	
49	0.408333	-148.579	-42.7818	-33.9519	-129.152	-61.1943	-47.8266	-105.378	-76.8202	-69.0691	-95.2327	-92.7328	-90.0766	-151.283	-30.922	-116.413	-134.767	-39.779	-140.166	-122.414	-56.3555	-158.74	-182.559	-37.6466	-126.407	-172.523	-51.808	-157.799	-159.827	-81.2316	-179.065	-205.152	-55.4288	-124.372	-195.234	-71.1923	-151.366	-180.272	-96.6904	-164.066	-219.38	-75.0492	-106.554	-210.721	-94.8259	-131.916	-196.088	-119.558	-143.551	-217.926	-41.7396	-68.1422	-221.08	-36.9714	-35.5468	-189.67	-23.9227	-48.4588	
50	0.416667	-156.698	-31.6063	-32.981	-125.495	-44.0624	-45.2926	-98.0521	-56.4529	-59.4427	-79.3805	-71.7414	-75.5364	-150.612	-39.0375	-115.54	-131.87	-50.8358	-141.588	-110.602	-64.2205	-152.769	-175.382	-60.892	-128.812	-157.192	-77.9694	-155.76	-135.617	-102.578	-165.568	-189.99	-82.2624	-122.493	-173.416	-103.984	-144.795	-145.662	-123.337	-149.14	-199.987	-106.684	-106.119	-185.595	-127.542	-120.283	-160.571	-139.935	-125.381	-214.966	-61.6741	-71.6411	-226.954	-53.1967	-45.3	-197.492	-31.6215	-58.3202	
51	0.425	-170.883	-29.7129	-41.9508	-135.624	-29.4005	-48.1239	-105.144	-35.8071	-60.9877	-80.5874	-48.3729	-76.1337	-154.203	-52.1197	-124.005	-129.652	-57.4975	-142.442	-101.447	-69.4626	-150.954	-166.062	-81.1306	-129.279	-140.898	-91.7385	-149.905	-103.989	-112.352	-151.39	-170.796	-104.682	-120.271	-145.731	-119.992	-135.344	-116.982	-131.463	-132.716	-177.125	-129.418	-94.8439	-147.734	-143.961	-106.385	-120.487	-143.347	-104.267	-207.268	-85.8618	-76.4268	-226.144	-80.5014	-49.7245	-205.569	-47.9708	-69.0928	
52	0.433333	-187.218	-37.1311	-56.0634	-157.631	-23.13	-60.0449	-120.668	-14.0314	-77.0591	-96.7569	-22.8418	-83.9225	-157.581	-64.9512	-127.768	-132.081	-63.1736	-145.593	-99.8551	-63.5603	-150.536	-152.61	-97.022	-129.868	-124.526	-98.0653	-144.935	-86.5142	-96.1259	-142.329	-151.254	-119.589	-109.178	-121.373	-122.843	-123.459	-88.0414	-119.265	-119.083	-146.845	-134.328	-83.4853	-113.98	-136.817	-90.1093	-85.3322	-127.861	-86.4063	-193.701	-104.661	-75.0568	-219.718	-102.867	-48.808	-208.375	-69.2039	-77.1737	
53	0.441667	-202.957	-42.247	-64.8697	-176.516	-19.0715	-78.6551	-147.718	-2.11312	-92.6593	-123.218	-2.58388	-97.3215	-160.277	-71.3172	-131.819	-136.204	-62.3871	-152.464	-110.986	-51.6665	-159.233	-143.193	-95.4713	-129.269	-110.562	-91.7174	-143.779	-78.4978	-77.5381	-141.312	-132.147	-111.108	-108.16	-103.225	-109.657	-115.873	-76.8818	-92.669	-118.21	-124.813	-119.305	-77.9847	-93.9056	-110.95	-83.8069	-71.6745	-94.7224	-83.7413	-181.61	-115.306	-68.2978	-204.258	-113.851	-48.0668	-206.368	-84.8533	-80.6658	
54	0.45	-209.236	-51.0355	-74.7383	-194.744	-24.642	-86.2741	-171.521	-1.68025	-104.653	-147.926	5.81593	-110.697	-161.809	-75.8903	-135.496	-141.22	-63.7302	-160.731	-121.75	-48.5315	-169.728	-136.469	-96.5403	-124.866	-107.839	-82.459	-145.324	-81.4254	-59.3028	-148.844	-120.972	-102.496	-101.899	-91.8353	-91.9982	-114.864	-74.1959	-68.74	-121.763	-110.302	-100.393	-75.8675	-86.1059	-85.9997	-82.5594	-69.6687	-64.3214	-87.5636	-167.334	-113.257	-66.7124	-189.628	-115.26	-41.2719	-201.204	-93.1278	-78.0069	
55	0.458333	-214.166	-59.8242	-75.808	-206.392	-30.3749	-96.2447	-187.982	-9.49873	-114.177	-168.88	6.74546	-128.393	-167.442	-83.2387	-136.919	-152.143	-72.1492	-164.708	-134.932	-54.2176	-181.491	-139.9	-95.8937	-129.146	-114.41	-82.8024	-153.53	-91.5655	-59.2699	-159.345	-123.965	-95.8649	-107.189	-94.0701	-82.2906	-124.572	-80.3037	-59.0359	-134.568	-108.779	-89.0149	-78.5329	-89.4699	-73.2799	-90.4124	-70.1136	-48.2054	-98.3147	-163.621	-107.358	-67.1019	-183.186	-112.748	-43.6845	-200.193	-101.587	-75.0174	
56	0.466667	-220.673	-65.2777	-79.7717	-217.291	-37.9656	-101.564	-204.965	-16.3205	-126.363	-188.166	-2.35036	-140.633	-180.978	-93.2716	-143.419	-171.73	-85.2148	-171.644	-158.918	-69.3415	-191.996	-148.888	-104.868	-135.711	-125.707	-93.2507	-162.136	-106.039	-66.2533	-175.481	-130.997	-99.5966	-114.099	-105.392	-87.8685	-136.948	-94.6208	-63.4491	-154.605	-118.111	-88.5384	-88.8973	-97.1158	-74.9847	-104.328	-79.3036	-53.2008	-118.033	-159.777	-109.746	-71.025	-179.927	-113.958	-39.5947	-201.527	-103.441	-77.5805	
57	0.475	-227.282	-68.299	-74.4551	-223.292	-45.2952	-100.049	-211.958	-27.1137	-130.553	-198.334	-16.3009	-148.013	-199.932	-104.333	-146.142	-192.256	-101.061	-174.668	-183.047	-84.4702	-198.946	-167.194	-118.526	-138.156	-151.12	-114.236	-167.001	-132.349	-86.6496	-191.17	-144.892	-112.217	-125.868	-127.851	-106.22	-150.241	-117.061	-86.0137	-169.111	-127.363	-97.6069	-99.9937	-105.453	-86.7655	-120.99	-92.7967	-72.8676	-138.399	-169.112	-111.572	-71.5256	-186.665	-113.703	-43.454	-209.506	-108.595	-72.1396	
58	0.483333	-238.631	-64.6539	-73.1838	-230.579	-45.2309	-100.931	-226.329	-29.6288	-130.296	-212.218	-22.3203	-155.226	-222.82	-109.854	-140.573	-221.12	-109.047	-171.8	-211.285	-92.2594	-201.577	-192.1	-125.518	-136.996	-180.062	-124.818	-175.398	-166.081	-104.714	-201.58	-167.94	-121.86	-127.002	-153.219	-120.221	-157.598	-145.57	-104.186	-180.553	-143.994	-108.215	-109.67	-129.358	-103.141	-133.993	-115.557	-91.1954	-157.669	-185.88	-115.179	-77.8496	-192.624	-112.706	-42.2731	-220.648	-109.067	-70.5045	
59	0.491667	-245.441	-53.8623	-69.4823	-236.363	-36.2471	-99.5253	-232.43	-22.0604	-129.912	-219.556	-18.4253	-155.274	-251.448	-100.838	-142.028	-254.04	-95.9655	-173.211	-242.654	-85.0947	-195.81	-221.716	-123.825	-141.568	-218.592	-124.29	-175.01	-201.625	-107.813	-204.202	-195.733	-124.566	-134.864	-188.881	-123.913	-166.009	-177.512	-109.001	-193.5	-169.025	-112.714	-117.216	-153.81	-112.373	-148.416	-146.978	-104.465	-168.898	-199.827	-114.683	-75.8405	-204.074	-112.274	-45.3129	-239.594	-100.317	-68.8709	
60	0.5	-246.06	-39.128	-66.9087	-233.923	-22.9256	-96.2514	-228.844	-5.83637	-130.593	-218.203	-4.70668	-152.066	-267.259	-78.0505	-135.271	-272.541	-72.8297	-167.693	-260.043	-56.9824	-196.915	-252.045	-103.008	-142.486	-249.065	-103.876	-176.427	-236.89	-85.394	-210.043	-223.389	-114.339	-138.186	-217.852	-115.601	-170.191	-211.525	-100.224	-195.961	-194.346	-110.546	-126.486	-182.365	-113.081	-154.464	-174.998	-109.257	-178.999	-221.183	-106.627	-84.9357	-219.773	-104.336	-48.147	-246.826	-87.2792	-68.514	
61	0.508333	-238.937	-23.7351	-64.6172	-222.786	-6.54942	-91.5269	-213.808	11.0575	-119.85	-204.187	13.6844	-148.206	-274.131	-48.4573	-134.004	-278.449	-35.7623	-165.31	-265.692	-18.0494	-189.019	-268.112	-74.6689	-144.848	-266.99	-70.348	-180.739	-252.092	-54.014	-208.86	-242.788	-95.1275	-141.111	-244.702	-91.155	-173.723	-230.831	-77.2112	-201.023	-213.831	-104.025	-134.107	-208.738	-102.568	-163.674	-202.654	-94.2207	-187.039	-235.245	-94.8625	-89.3399	-232.6	-96.0079	-55.7407	-259.165	-66.5317	-65.7601	
62	0.516667	-221.362	-15.8993	-58.0233	-201.367	-2.25034	-87.9506	-187.243	11.7033	-110.806	-178.221	14.9453	-140.203	-265.996	-12.0074	-129.783	-264.739	3.90058	-154.916	-244.51	14.7312	-181.363	-269.465	-40.4806	-139.528	-269.169	-27.6067	-175.969	-250.1	-20.5187	-203.721	-256.395	-67.7616	-143.06	-258.078	-59.0734	-171.508	-239.884	-46.695	-199.828	-232.949	-87.0945	-135.763	-229.384	-84.5815	-166.356	-221.651	-76.4138	-192.159	-247.315	-77.9865	-84.6414	-243.629	-82.8624	-55.7597	-255.391	-47.8442	-64.5934	
63	0.525	-203.728	-17.2761	-54.1823	-180.679	-7.06931	-79.9915	-163.546	4.36972	-105.52	-153.61	5.38886	-132.924	-243.013	7.4981	-121.546	-235.547	25.4868	-148.505	-214.456	32.6943	-171.513	-256.855	-16.7737	-136.402	-253.037	-2.24844	-166.761	-231.054	6.295	-195.296	-252.213	-46.2445	-137.257	-250.514	-34.9054	-169.321	-232.863	-28.5445	-194.917	-238.398	-70.4115	-131.869	-235.93	-67.993	-163.806	-226.689	-55.3736	-188.311	-247.443	-62.8086	-84.3995	-248.342	-77.7994	-54.3997	-247.315	-33.2294	-62.2979	
64	0.533333	-188.464	-21.8052	-50.0458	-160.389	-16.7247	-70.6079	-139.268	-5.60039	-101.867	-132.502	-10.1945	-125.574	-215.337	18.6136	-116.308	-201.51	34.3439	-141.352	-181.111	36.0385	-160.18	-234.788	2.71971	-127.186	-225.854	15.8229	-161.532	-203.801	17.2575	-189.182	-242.326	-28.7552	-136.034	-235.962	-18.0551	-163.671	-214.365	-12.6698	-189.092	-235.219	-54.6957	-130.046	-233.125	-49.6216	-160.293	-224.192	-45.6281	-184.311	-243.201	-51.008	-81.9235	-245.021	-63.0654	-52.2732	-229.883	-24.2801	-56.8491	
65	0.541667	-170.356	-27.9877	-44.0827	-143.09	-27.567	-69.9631	-122.285	-27.997	-92.3227	-114.953	-28.9629	-120.662	-184.635	19.2561	-104.733	-167.477	31.126	-133.624	-146.197	27.0393	-157.909	-206.704	13.8334	-119.792	-196.196	23.6907	-153.825	-177.918	19.7034	-180.802	-220.696	-9.76046	-128.214	-212.803	-2.12707	-157.787	-194.33	-4.92165	-183.042	-227.511	-38.8375	-127.84	-225.076	-36.7555	-155.841	-211.948	-27.2703	-177.93	-232.274	-37.6971	-75.1925	-241.522	-47.2226	-50.1691	-214.634	-17.8035	-50.717	
66	0.55	-154.379	-34.4064	-38.6137	-128.311	-41.7194	-61.1527	-109.854	-45.6651	-91.0993	-101.977	-49.8169	-117.93	-157.18	14.7409	-99.043	-138.298	22.4176	-126.44	-119.683	12.4248	-151.508	-182.949	15.3213	-116.535	-167.716	24.143	-143.571	-149.308	12.0123	-177.015	-202.456	-3.74294	-123.705	-194.976	1.66294	-153.115	-175.155	-4.07476	-175.228	-218.351	-31.266	-118.686	-210.622	-25.4552	-147.728	-201.718	-25.5144	-173.607	-219.09	-25.1958	-68.7046	-228.228	-35.3284	-44.0477	-195.391	-12.1502	-44.0165	
67	0.558333	-141.725	-36.1562	-32.2905	-119.205	-50.8308	-54.5998	-98.8327	-58.8136	-84.548	-97.7125	-65.4959	-111.977	-139.44	7.96523	-98.9215	-118.982	10.0873	-123.359	-102.509	-2.84817	-147.309	-163.392	9.34978	-113.801	-146.831	12.5023	-146.116	-132.591	-3.07011	-173.383	-185.164	-4.69301	-120.003	-173.065	-4.49633	-151.169	-155.025	-17.0464	-172.694	-204.471	-26.4872	-118.299	-196.193	-26.1311	-146.957	-180.263	-31.0689	-169.968	-206.378	-17.9588	-64.7891	-213.876	-25.7026	-38.7685	-178.847	-9.21862	-40.4498	
68	0.566667	-134.065	-35.1808	-24.9425	-110.215	-52.5664	-45.8722	-93.5799	-63.3883	-71.3087	-84.0484	-74.3222	-97.6728	-124.863	2.00097	-99.3437	-105.414	-2.05179	-126.459	-94.3467	-19.0692	-146.201	-150.84	1.85627	-114.384	-135.364	-2.42323	-144.416	-116.515	-21.5179	-167.491	-171.021	-12.908	-117.016	-158.755	-18.3511	-147.281	-143.481	-35.5249	-167.147	-194.329	-34.3191	-114.448	-180.211	-37.3859	-142.088	-162.946	-46.6256	-160.36	-194.175	-17.8802	-65.7719	-208.6	-21.6286	-36.0534	-170.219	-8.40437	-40.1415	
69	0.575	-135.225	-25.3087	-20.7637	-104.846	-40.5484	-38.6673	-80.1483	-52.2937	-58.6096	-68.1116	-66.2754	-78.5089	-119.23	-1.41219	-99.7814	-100.071	-11.2404	-124.605	-84.0974	-29.0467	-139.861	-143.288	-11.6341	-119.587	-125.907	-19.7001	-144.621	-100.515	-41.7013	-161.994	-162.639	-31.965	-120.098	-147.118	-40.0669	-144.167	-121.35	-56.562	-155.895	-179.826	-52.6	-112.94	-161.936	-60.248	-135.677	-144.334	-72.3627	-149.482	-192.796	-27.2521	-64.8595	-206.789	-29.2149	-35.035	-170.645	-7.75167	-41.6486	
